# xmcd
# 
# Track frame offsets:
#     150
#     28580
#     58142
#     86640
# 
# Disc length: 1387
# 
# Revision: 1
# Processed by: cddbd v1.5.2PL0 Copyright (c) Steve Scherf et al.
# Submitted via: BonkEnc v1.0
# 
DISCID=2d056904
DTITLE=YOU THE ROCK★ - Hip Hop Royal
DYEAR=2002
DGENRE=ヒップ ホップ (一般)
TTITLE0=Hip Hop Royal
TTITLE1=Hip Hop Royal K.U.D.O REMIX
TTITLE2=Hip Hop Royal INSTRUMENTAL
TTITLE3=Hip Hop Royal RADIO EDIT
EXTD=YEAR: 2002
EXTT0=
EXTT1=
EXTT2=
EXTT3=
PLAYORDER=
